<mxfile host="Electron" modified="2024-05-21T13:58:35.659Z" agent="Mozilla/5.0 (X11; Linux x86_64) AppleWebKit/537.36 (KHTML, like Gecko) draw.io/24.2.5 Chrome/120.0.6099.109 Electron/28.1.0 Safari/537.36" etag="oU8D-2fomClCextJbycG" version="24.2.5" type="device">
  <diagram name="Page-1" id="PWORTPtsAY5UC9q56Seq">
    <mxGraphModel dx="1434" dy="835" grid="1" gridSize="10" guides="1" tooltips="1" connect="1" arrows="1" fold="1" page="1" pageScale="1" pageWidth="850" pageHeight="1100" math="0" shadow="0">
      <root>
        <mxCell id="0" />
        <mxCell id="1" parent="0" />
        <mxCell id="GlFfROva-M0b1X3F4qhi-1" value="1" style="rounded=0;whiteSpace=wrap;html=1;shadow=0;strokeColor=#6c8ebf;strokeWidth=1;fontFamily=Ubuntu;fontSize=16;fontStyle=0;fillColor=#dae8fc;" vertex="1" parent="1">
          <mxGeometry x="600" y="160" width="80" height="40" as="geometry" />
        </mxCell>
        <mxCell id="GlFfROva-M0b1X3F4qhi-2" value="Heap" style="text;html=1;align=center;verticalAlign=middle;whiteSpace=wrap;rounded=0;fontFamily=Ubuntu;fontSize=16;fontStyle=0;" vertex="1" parent="1">
          <mxGeometry x="575" y="120" width="130" height="30" as="geometry" />
        </mxCell>
        <mxCell id="GlFfROva-M0b1X3F4qhi-3" value="Stack" style="text;html=1;align=center;verticalAlign=middle;whiteSpace=wrap;rounded=0;fontFamily=Ubuntu;fontSize=16;fontStyle=0;" vertex="1" parent="1">
          <mxGeometry x="290" y="120" width="130" height="30" as="geometry" />
        </mxCell>
        <mxCell id="GlFfROva-M0b1X3F4qhi-4" value="nums" style="text;html=1;align=center;verticalAlign=middle;whiteSpace=wrap;rounded=0;fontFamily=Ubuntu;fontSize=16;fontStyle=0;" vertex="1" parent="1">
          <mxGeometry x="150" y="205" width="130" height="30" as="geometry" />
        </mxCell>
        <mxCell id="GlFfROva-M0b1X3F4qhi-5" value="part" style="text;html=1;align=center;verticalAlign=middle;whiteSpace=wrap;rounded=0;fontFamily=Ubuntu;fontSize=16;fontStyle=0;" vertex="1" parent="1">
          <mxGeometry x="150" y="340" width="130" height="30" as="geometry" />
        </mxCell>
        <mxCell id="GlFfROva-M0b1X3F4qhi-6" value="1" style="rounded=0;whiteSpace=wrap;html=1;shadow=0;strokeColor=#6c8ebf;strokeWidth=1;fontFamily=Ubuntu;fontSize=16;fontStyle=0;fillColor=#dae8fc;" vertex="1" parent="1">
          <mxGeometry x="600" y="200" width="80" height="40" as="geometry" />
        </mxCell>
        <mxCell id="GlFfROva-M0b1X3F4qhi-7" value="2" style="rounded=0;whiteSpace=wrap;html=1;shadow=0;strokeColor=#6c8ebf;strokeWidth=1;fontFamily=Ubuntu;fontSize=16;fontStyle=0;fillColor=#dae8fc;" vertex="1" parent="1">
          <mxGeometry x="600" y="240" width="80" height="40" as="geometry" />
        </mxCell>
        <mxCell id="GlFfROva-M0b1X3F4qhi-8" value="3" style="rounded=0;whiteSpace=wrap;html=1;shadow=0;strokeColor=#6c8ebf;strokeWidth=1;fontFamily=Ubuntu;fontSize=16;fontStyle=0;fillColor=#dae8fc;" vertex="1" parent="1">
          <mxGeometry x="600" y="280" width="80" height="40" as="geometry" />
        </mxCell>
        <mxCell id="GlFfROva-M0b1X3F4qhi-9" value="5" style="rounded=0;whiteSpace=wrap;html=1;shadow=0;strokeColor=#6c8ebf;strokeWidth=1;fontFamily=Ubuntu;fontSize=16;fontStyle=0;fillColor=#dae8fc;" vertex="1" parent="1">
          <mxGeometry x="600" y="320" width="80" height="40" as="geometry" />
        </mxCell>
        <mxCell id="GlFfROva-M0b1X3F4qhi-10" value="8" style="rounded=0;whiteSpace=wrap;html=1;shadow=0;strokeColor=#6c8ebf;strokeWidth=1;fontFamily=Ubuntu;fontSize=16;fontStyle=0;fillColor=#dae8fc;" vertex="1" parent="1">
          <mxGeometry x="600" y="360" width="80" height="40" as="geometry" />
        </mxCell>
        <mxCell id="GlFfROva-M0b1X3F4qhi-12" style="edgeStyle=orthogonalEdgeStyle;rounded=1;orthogonalLoop=1;jettySize=auto;html=1;entryX=0;entryY=0.5;entryDx=0;entryDy=0;shadow=0;strokeColor=#6c8ebf;strokeWidth=1;fontFamily=Ubuntu;fontSize=14;fontStyle=0;endArrow=block;endFill=1;fillColor=#dae8fc;" edge="1" parent="1" source="GlFfROva-M0b1X3F4qhi-11" target="GlFfROva-M0b1X3F4qhi-1">
          <mxGeometry relative="1" as="geometry" />
        </mxCell>
        <mxCell id="GlFfROva-M0b1X3F4qhi-11" value="buffer ptr" style="rounded=0;whiteSpace=wrap;html=1;shadow=0;strokeColor=#b85450;strokeWidth=1;fontFamily=Ubuntu;fontSize=16;fontStyle=0;fillColor=#f8cecc;" vertex="1" parent="1">
          <mxGeometry x="280" y="160" width="160" height="40" as="geometry" />
        </mxCell>
        <mxCell id="GlFfROva-M0b1X3F4qhi-13" value="length = 6" style="rounded=0;whiteSpace=wrap;html=1;shadow=0;strokeColor=#82b366;strokeWidth=1;fontFamily=Ubuntu;fontSize=16;fontStyle=0;fillColor=#d5e8d4;" vertex="1" parent="1">
          <mxGeometry x="280" y="200" width="160" height="40" as="geometry" />
        </mxCell>
        <mxCell id="GlFfROva-M0b1X3F4qhi-14" value="capacity = 6" style="rounded=0;whiteSpace=wrap;html=1;shadow=0;strokeColor=#82b366;strokeWidth=1;fontFamily=Ubuntu;fontSize=16;fontStyle=0;fillColor=#d5e8d4;" vertex="1" parent="1">
          <mxGeometry x="280" y="240" width="160" height="40" as="geometry" />
        </mxCell>
        <mxCell id="GlFfROva-M0b1X3F4qhi-17" style="edgeStyle=orthogonalEdgeStyle;rounded=1;orthogonalLoop=1;jettySize=auto;html=1;entryX=0;entryY=0.5;entryDx=0;entryDy=0;shadow=0;strokeColor=#6c8ebf;strokeWidth=1;fontFamily=Ubuntu;fontSize=14;fontStyle=0;endArrow=block;endFill=1;fillColor=#dae8fc;" edge="1" parent="1" source="GlFfROva-M0b1X3F4qhi-15" target="GlFfROva-M0b1X3F4qhi-6">
          <mxGeometry relative="1" as="geometry" />
        </mxCell>
        <mxCell id="GlFfROva-M0b1X3F4qhi-15" value="buffer ptr" style="rounded=0;whiteSpace=wrap;html=1;shadow=0;strokeColor=#b85450;strokeWidth=1;fontFamily=Ubuntu;fontSize=16;fontStyle=0;fillColor=#f8cecc;" vertex="1" parent="1">
          <mxGeometry x="280" y="320" width="160" height="40" as="geometry" />
        </mxCell>
        <mxCell id="GlFfROva-M0b1X3F4qhi-16" value="length = 2" style="rounded=0;whiteSpace=wrap;html=1;shadow=0;strokeColor=#82b366;strokeWidth=1;fontFamily=Ubuntu;fontSize=16;fontStyle=0;fillColor=#d5e8d4;" vertex="1" parent="1">
          <mxGeometry x="280" y="360" width="160" height="40" as="geometry" />
        </mxCell>
      </root>
    </mxGraphModel>
  </diagram>
</mxfile>
